<svg width="26" height="27" viewBox="0 0 26 27" fill="none" xmlns="http://www.w3.org/2000/svg">
<path d="M13.118 0.939453C6.06372 0.939453 0.345215 6.65795 0.345215 13.7123C0.345215 20.7666 6.06372 26.4851 13.118 26.4851C20.1724 26.4851 25.8909 20.7666 25.8909 13.7123C25.8909 6.65795 20.1724 0.939453 13.118 0.939453ZM9.99136 19.0064H7.40486V10.6827H9.99136V19.0064ZM8.68215 9.6609C7.86522 9.6609 7.33701 9.08213 7.33701 8.36632C7.33701 7.63587 7.88118 7.0744 8.71541 7.0744C9.54963 7.0744 10.0605 7.63587 10.0765 8.36632C10.0765 9.08213 9.54963 9.6609 8.68215 9.6609ZM19.4379 19.0064H16.8514V14.3935C16.8514 13.3198 16.4762 12.5907 15.5409 12.5907C14.8264 12.5907 14.402 13.0843 14.2144 13.5593C14.1452 13.7282 14.1279 13.9677 14.1279 14.2059V19.005H11.5401V13.3371C11.5401 12.298 11.5068 11.4291 11.4722 10.6814H13.7194L13.8378 11.8376H13.8897C14.2303 11.2948 15.0646 10.4938 16.4603 10.4938C18.162 10.4938 19.4379 11.634 19.4379 14.0848V19.0064Z" fill="#373737"/>
</svg>
